<?xml version="1.0" encoding="utf-8"?>
<!-- Generator: Adobe Illustrator 27.0.0, SVG Export Plug-In . SVG Version: 6.00 Build 0)  -->
<svg version="1.1" id="Layer_1" xmlns="http://www.w3.org/2000/svg" xmlns:xlink="http://www.w3.org/1999/xlink" x="0px" y="0px"
	 viewBox="0 0 512 512" style="enable-background:new 0 0 512 512;" xml:space="preserve">
<style type="text/css">
	.st0{fill:#6A317F;}
	.st1{fill:#D31534;}
	.st2{clip-path:url(#SVGID_00000095325606784120665720000011357864599141323941_);}
</style>
<polygon class="st1" points="464.4,237.3 464.4,72.9 200.9,72.7 200.9,352.5 241.7,346.3 241.7,112.4 428.8,112.4 428.8,200.4 
	260.3,225.7 260.3,265.4 "/>
<polygon class="st1" points="87.8,170.1 47,169.3 47,254.4 181.8,351.2 181.8,301.8 87.8,232.8 "/>
<polygon class="st1" points="464.4,54 464.4,14.3 47,14.3 47,151.5 181.1,151.5 181.1,111.6 87.8,111.6 87.8,54 "/>
<g>
	<defs>
		<rect id="SVGID_1_" x="-254.2" y="-113.2" width="1020.6" height="737.8"/>
	</defs>
	<clipPath id="SVGID_00000125567035871466692880000006572784778045202820_">
		<use xlink:href="#SVGID_1_"  style="overflow:visible;"/>
	</clipPath>
	<path style="clip-path:url(#SVGID_00000125567035871466692880000006572784778045202820_);" d="M192.1,408c0.7,0.2,1.3,0.7,1.8,1.4
		c0.5,0.7,0.9,1.6,1.2,2.8c0.3,1.2,0.4,2.7,0.4,4.6v18.3h13.1v-24.1c0-2.5-0.3-4.6-1-6.3c-0.7-1.7-1.5-3.1-2.6-4.2
		c-1.1-1.1-2.4-1.9-4-2.4c-1.5-0.5-3.2-0.8-4.9-0.8c-5.5,0-9.6,2.3-12.6,7c-2.9-4.6-7.1-6.9-12.6-6.9c-4.4,0-8.4,1.7-12,5.1V398
		h-13.1v37.1h13.1v-18.3c0-2,0.2-3.6,0.5-4.8c0.3-1.2,0.7-2.2,1.3-2.9c0.6-0.7,1.2-1.2,1.9-1.4c0.7-0.2,1.5-0.4,2.3-0.4
		c1,0,1.8,0.1,2.5,0.4c0.7,0.3,1.3,0.8,1.8,1.5c0.5,0.7,0.8,1.7,1,2.9c0.2,1.2,0.4,2.8,0.4,4.7v18.3h13.1v-18.3
		c0-6.1,2.1-9.2,6.3-9.2C190.7,407.7,191.4,407.8,192.1,408"/>
	
		<rect x="354.2" y="398" style="clip-path:url(#SVGID_00000125567035871466692880000006572784778045202820_);" width="13.1" height="37.1"/>
	<path style="clip-path:url(#SVGID_00000125567035871466692880000006572784778045202820_);" d="M355.5,389c0.7,0.7,1.5,1.2,2.4,1.6
		c0.9,0.4,1.8,0.6,2.9,0.6c1,0,2-0.2,2.9-0.6c0.9-0.4,1.7-0.9,2.4-1.6c0.7-0.7,1.2-1.5,1.6-2.4c0.4-0.9,0.6-1.8,0.6-2.9
		c0-1-0.2-2-0.6-2.9c-0.4-0.9-0.9-1.7-1.6-2.4c-0.7-0.7-1.5-1.2-2.4-1.6c-0.9-0.4-1.8-0.6-2.9-0.6c-1,0-2,0.2-2.9,0.6
		c-0.9,0.4-1.7,0.9-2.4,1.6c-0.7,0.7-1.2,1.5-1.6,2.4c-0.4,0.9-0.6,1.8-0.6,2.9c0,1,0.2,2,0.6,2.9
		C354.3,387.5,354.8,388.3,355.5,389"/>
	<path style="clip-path:url(#SVGID_00000125567035871466692880000006572784778045202820_);" d="M462.4,406.3
		c-0.4-1.5-1.1-2.9-2.2-4.2c-1.3-1.5-2.9-2.7-4.7-3.6s-4.1-1.3-6.7-1.3c-2.5,0-4.6,0.4-6.4,1.1c-1.8,0.7-3.6,2.2-5.4,4.4V398h-13.1
		v37.1h13.1v-19.8c0-2.5,0.6-4.4,1.8-5.7c1.2-1.3,2.9-2,5.1-2c0.8,0,1.6,0.1,2.3,0.4c0.7,0.2,1.4,0.7,2,1.2c0.7,0.7,1.1,1.6,1.4,2.7
		c0.3,1.1,0.4,2.6,0.4,4.4v18.7H463v-23.6C463,409.6,462.8,407.8,462.4,406.3"/>
	<path style="clip-path:url(#SVGID_00000125567035871466692880000006572784778045202820_);" d="M66.5,445.2H50.3v39.3h10.2v-13h6
		c4.4,0,7.8-1.1,10.1-3.4c2.3-2.3,3.5-5.5,3.5-9.7c0-4.2-1.2-7.4-3.5-9.7C74.3,446.4,71,445.2,66.5,445.2 M63.9,463.2h-3.4v-9.8h3.4
		c3.7,0,5.6,1.6,5.6,4.9C69.5,461.6,67.6,463.2,63.9,463.2"/>
	<path style="clip-path:url(#SVGID_00000125567035871466692880000006572784778045202820_);" d="M101.2,457.2c-1.9,0-3.6,0.4-5.1,1.3
		c-1.5,0.9-2.7,2.1-3.7,3.7v-4.4H83v26.7h9.4V473c0-2.5,0.5-4.4,1.6-5.7c1.1-1.3,2.7-2,4.9-2c1.5,0,2.8,0.3,4.1,0.9v-9
		c-0.4-0.1-0.7-0.1-1-0.1H101.2z"/>
	<path style="clip-path:url(#SVGID_00000125567035871466692880000006572784778045202820_);" d="M129.9,460.7
		c-1.2-1.3-2.8-2.3-4.6-2.9c-1.8-0.7-3.8-1-6.1-1c-2.3,0-4.3,0.3-6.2,1c-1.8,0.7-3.4,1.6-4.7,2.9c-1.3,1.2-2.3,2.8-3,4.6
		c-0.7,1.8-1,3.8-1,6c0,2.2,0.4,4.1,1.1,5.8c0.7,1.7,1.8,3.2,3.1,4.5c1.3,1.3,2.9,2.2,4.8,2.9c1.9,0.7,3.9,1,6.2,1
		c7.4,0,12-3.1,13.8-9.2h-9.1c-1,1.7-2.6,2.5-4.6,2.5c-3.8,0-5.7-2-5.7-6.1h19.8v-1c0-2.3-0.3-4.4-1-6.3
		C132.1,463.6,131.1,462,129.9,460.7 M114.1,467.3c0.2-1.4,0.8-2.5,1.7-3.2c0.9-0.8,2.1-1.1,3.6-1.1c1.4,0,2.6,0.4,3.5,1.2
		c1,0.8,1.6,1.9,1.9,3.2H114.1z"/>
	<path style="clip-path:url(#SVGID_00000125567035871466692880000006572784778045202820_);" d="M179.9,459.6
		c-0.8-0.8-1.8-1.4-2.9-1.7c-1.1-0.4-2.3-0.5-3.5-0.5c-3.9,0-6.9,1.7-9.1,5.1c-2.1-3.3-5.1-5-9.1-5c-3.2,0-6.1,1.2-8.6,3.7v-3.3
		h-9.4v26.7h9.4v-13.2c0-1.4,0.1-2.6,0.3-3.5c0.2-0.9,0.5-1.6,0.9-2.1s0.9-0.8,1.4-1c0.5-0.2,1.1-0.3,1.7-0.3c0.7,0,1.3,0.1,1.8,0.3
		c0.5,0.2,0.9,0.5,1.3,1.1c0.3,0.5,0.6,1.2,0.8,2.1c0.2,0.9,0.3,2,0.3,3.4v13.2h9.4v-13.2c0-4.4,1.5-6.6,4.5-6.6
		c0.6,0,1.1,0.1,1.6,0.3c0.5,0.2,0.9,0.5,1.3,1c0.4,0.5,0.6,1.2,0.8,2c0.2,0.9,0.3,2,0.3,3.3v13.2h9.4v-17.3c0-1.8-0.2-3.3-0.7-4.5
		C181.4,461.4,180.7,460.4,179.9,459.6"/>
	
		<rect x="187.2" y="457.8" style="clip-path:url(#SVGID_00000125567035871466692880000006572784778045202820_);" width="9.4" height="26.7"/>
	<path style="clip-path:url(#SVGID_00000125567035871466692880000006572784778045202820_);" d="M195.6,443.8
		c-0.5-0.5-1.1-0.9-1.7-1.1c-0.6-0.3-1.3-0.4-2.1-0.4c-0.7,0-1.4,0.1-2.1,0.4c-0.6,0.3-1.2,0.7-1.7,1.1c-0.5,0.5-0.9,1.1-1.1,1.7
		c-0.3,0.6-0.4,1.3-0.4,2.1c0,0.7,0.1,1.4,0.4,2.1c0.3,0.6,0.7,1.2,1.1,1.7c0.5,0.5,1.1,0.9,1.7,1.1c0.6,0.3,1.3,0.4,2.1,0.4
		c0.7,0,1.4-0.1,2.1-0.4c0.6-0.3,1.2-0.7,1.7-1.1c0.5-0.5,0.9-1.1,1.1-1.7c0.3-0.6,0.4-1.3,0.4-2.1c0-0.7-0.1-1.4-0.4-2.1
		C196.5,444.8,196.1,444.3,195.6,443.8"/>
	<path style="clip-path:url(#SVGID_00000125567035871466692880000006572784778045202820_);" d="M225.8,460.7
		c-1.2-1.3-2.8-2.3-4.6-2.9c-1.8-0.7-3.8-1-6.1-1c-2.3,0-4.3,0.3-6.2,1c-1.8,0.7-3.4,1.6-4.7,2.9c-1.3,1.2-2.3,2.8-3,4.6
		c-0.7,1.8-1,3.8-1,6c0,2.2,0.4,4.1,1.1,5.8c0.7,1.7,1.8,3.2,3.1,4.5c1.3,1.3,2.9,2.2,4.8,2.9c1.9,0.7,3.9,1,6.2,1
		c7.4,0,12-3.1,13.8-9.2h-9.1c-1,1.7-2.6,2.5-4.6,2.5c-3.8,0-5.7-2-5.7-6.1h19.8v-1c0-2.3-0.3-4.4-1-6.3
		C228,463.6,227,462,225.8,460.7 M210.1,467.3c0.2-1.4,0.8-2.5,1.7-3.2c0.9-0.8,2.1-1.1,3.6-1.1c1.4,0,2.6,0.4,3.5,1.2
		c1,0.8,1.6,1.9,1.9,3.2H210.1z"/>
	<path style="clip-path:url(#SVGID_00000125567035871466692880000006572784778045202820_);" d="M251.5,457.2c-1.9,0-3.6,0.4-5.1,1.3
		c-1.5,0.9-2.7,2.1-3.7,3.7v-4.4h-9.4v26.7h9.4V473c0-2.5,0.5-4.4,1.6-5.7c1.1-1.3,2.7-2,4.9-2c1.5,0,2.8,0.3,4.1,0.9v-9
		c-0.4-0.1-0.7-0.1-1-0.1H251.5z"/>
	<polygon style="clip-path:url(#SVGID_00000125567035871466692880000006572784778045202820_);" points="282.7,445.2 272.5,445.2 
		272.5,484.5 295,484.5 295,475.8 282.7,475.8 	"/>
	<path style="clip-path:url(#SVGID_00000125567035871466692880000006572784778045202820_);" d="M322,460.7c-1.2-1.3-2.8-2.3-4.6-2.9
		c-1.8-0.7-3.8-1-6.1-1c-2.3,0-4.3,0.3-6.2,1c-1.8,0.7-3.4,1.6-4.7,2.9c-1.3,1.2-2.3,2.8-3,4.6c-0.7,1.8-1,3.8-1,6
		c0,2.2,0.4,4.1,1.1,5.8c0.7,1.7,1.8,3.2,3.1,4.5c1.3,1.3,2.9,2.2,4.8,2.9c1.9,0.7,3.9,1,6.2,1c7.4,0,12-3.1,13.8-9.2h-9.1
		c-1,1.7-2.6,2.5-4.6,2.5c-3.8,0-5.7-2-5.7-6.1h19.8v-1c0-2.3-0.3-4.4-1-6.3C324.2,463.6,323.3,462,322,460.7 M306.3,467.3
		c0.2-1.4,0.8-2.5,1.7-3.2c0.9-0.8,2.1-1.1,3.6-1.1c1.4,0,2.6,0.4,3.5,1.2c1,0.8,1.6,1.9,1.9,3.2H306.3z"/>
	<path style="clip-path:url(#SVGID_00000125567035871466692880000006572784778045202820_);" d="M387.3,458.7
		c-2.2-1.3-4.7-2.1-7.5-2.1c-7.9,0-14.3,6.4-14.3,14.3c0,7.9,6.4,14.3,14.3,14.3c2.7,0,5.3-0.8,7.5-2.1v1c0,2-0.5,3.5-1.6,4.6
		c-1.1,1.1-2.6,1.7-4.6,1.7c-2.3,0-3.8-0.9-4.5-2.7h-10.6c0.3,1.5,0.8,2.8,1.7,4c0.8,1.2,1.9,2.3,3.2,3.2c1.3,0.9,2.8,1.6,4.6,2.2
		c1.7,0.5,3.6,0.8,5.7,0.8c1.8,0,3.5-0.2,5.1-0.6c1.6-0.4,3-1,4.2-1.7c1.2-0.7,2.3-1.6,3.2-2.6c0.9-1,1.5-2.1,2-3.2
		c0.3-0.9,0.6-1.9,0.7-3.1c0.2-1.2,0.3-2.5,0.3-4v-24.9h-9.4V458.7z M379.8,477.2c-3.5,0-6.3-2.8-6.3-6.3s2.8-6.3,6.3-6.3
		c3.5,0,6.3,2.8,6.3,6.3S383.3,477.2,379.8,477.2"/>
	<path style="clip-path:url(#SVGID_00000125567035871466692880000006572784778045202820_);" d="M420.4,472.8c0,3.3-1.6,4.9-4.8,4.9
		c-3.2,0-4.8-1.6-4.8-4.9v-15h-9.4v16.9c0,3.6,1.2,6.3,3.6,8.1c2.4,1.8,5.9,2.7,10.7,2.7c4.7,0,8.3-0.9,10.6-2.7
		c2.4-1.8,3.6-4.5,3.6-8.1v-16.9h-9.4V472.8z"/>
	<path style="clip-path:url(#SVGID_00000125567035871466692880000006572784778045202820_);" d="M458.9,460.7
		c-1.2-1.3-2.8-2.3-4.6-2.9c-1.8-0.7-3.8-1-6.1-1c-2.3,0-4.3,0.3-6.2,1c-1.8,0.7-3.4,1.6-4.7,2.9c-1.3,1.2-2.3,2.8-3,4.6
		c-0.7,1.8-1,3.8-1,6c0,2.2,0.4,4.1,1.1,5.8c0.7,1.7,1.8,3.2,3.1,4.5c1.3,1.3,2.9,2.2,4.8,2.9c1.9,0.7,3.9,1,6.2,1
		c7.4,0,12-3.1,13.8-9.2h-9.1c-1,1.7-2.6,2.5-4.6,2.5c-3.8,0-5.7-2-5.7-6.1h19.8v-1c0-2.3-0.3-4.4-1-6.3
		C461.1,463.6,460.2,462,458.9,460.7 M443.2,467.3c0.2-1.4,0.8-2.5,1.7-3.2c0.9-0.8,2.1-1.1,3.6-1.1c1.4,0,2.6,0.4,3.5,1.2
		c1,0.8,1.6,1.9,1.9,3.2H443.2z"/>
	<path style="clip-path:url(#SVGID_00000125567035871466692880000006572784778045202820_);" d="M281.3,396.5
		c-11,0-19.9,8.9-19.9,19.9c0,11,8.9,19.9,19.9,19.9c11,0,19.9-8.9,19.9-19.9C301.2,405.4,292.3,396.5,281.3,396.5 M281.3,425
		c-4.8,0-8.7-3.9-8.7-8.7c0-4.8,3.9-8.7,8.7-8.7c4.8,0,8.7,3.9,8.7,8.7C290,421.2,286.1,425,281.3,425"/>
	<path style="clip-path:url(#SVGID_00000125567035871466692880000006572784778045202820_);" d="M238,396.5c-3.8,0-7.3,1.1-10.3,2.9
		v-24.3h-13.1v60h13.1v-1.8c3,1.8,6.5,2.9,10.3,2.9c11,0,19.9-8.9,19.9-19.9C257.8,405.4,248.9,396.5,238,396.5 M238,425
		c-4.8,0-8.7-3.9-8.7-8.7c0-4.8,3.9-8.7,8.7-8.7c4.8,0,8.7,3.9,8.7,8.7C246.7,421.2,242.8,425,238,425"/>
	<path style="clip-path:url(#SVGID_00000125567035871466692880000006572784778045202820_);" d="M325,436.2c3.8,0,7.3-1.1,10.3-2.9
		v1.8h13.1v-60h-13.1v24.3c-3-1.8-6.5-2.9-10.3-2.9c-11,0-19.9,8.9-19.9,19.9C305.1,427.3,314,436.2,325,436.2 M325,407.7
		c4.8,0,8.7,3.9,8.7,8.7c0,4.8-3.9,8.7-8.7,8.7c-4.8,0-8.7-3.9-8.7-8.7C316.3,411.6,320.2,407.7,325,407.7"/>
	<path style="clip-path:url(#SVGID_00000125567035871466692880000006572784778045202820_);" d="M76.4,436.5c4.6,0,8.9-1.1,12.7-3
		v-17.3c-2.8,4.1-7.4,6.8-12.7,6.8c-8.5,0-15.3-6.9-15.3-15.3c0-8.5,6.9-15.3,15.3-15.3c5.3,0,10,2.7,12.7,6.8v-17.3
		c-3.8-1.9-8.1-3-12.7-3c-15.9,0-28.8,12.9-28.8,28.8C47.6,423.6,60.5,436.5,76.4,436.5"/>
	<path style="clip-path:url(#SVGID_00000125567035871466692880000006572784778045202820_);" d="M113.8,436.2c4.9,0,9.3-1.7,12.8-4.6
		v3.6h13.2V398h-13.2v3.1c-3.5-2.9-7.9-4.6-12.8-4.6c-11,0-19.9,8.9-19.9,19.9C93.9,427.3,102.8,436.2,113.8,436.2 M113.8,407.7
		c4.8,0,8.7,3.9,8.7,8.7c0,4.8-3.9,8.7-8.7,8.7c-4.8,0-8.7-3.9-8.7-8.7C105.1,411.6,109,407.7,113.8,407.7"/>
	<path style="clip-path:url(#SVGID_00000125567035871466692880000006572784778045202820_);" d="M392.1,436.2c4.9,0,9.3-1.7,12.8-4.6
		v3.6H418V398h-13.2v3.1c-3.5-2.9-7.9-4.6-12.8-4.6c-11,0-19.9,8.9-19.9,19.9C372.2,427.3,381.1,436.2,392.1,436.2 M392.1,407.7
		c4.8,0,8.7,3.9,8.7,8.7c0,4.8-3.9,8.7-8.7,8.7c-4.8,0-8.7-3.9-8.7-8.7C383.4,411.6,387.3,407.7,392.1,407.7"/>
	<path style="clip-path:url(#SVGID_00000125567035871466692880000006572784778045202820_);" d="M352.6,459.9
		c-2.5-2.1-5.7-3.3-9.2-3.3c-7.9,0-14.3,6.4-14.3,14.3c0,7.9,6.4,14.3,14.3,14.3c3.5,0,6.7-1.3,9.2-3.3v2.6h9.5v-26.7h-9.5V459.9z
		 M343.4,477.2c-3.5,0-6.3-2.8-6.3-6.3s2.8-6.3,6.3-6.3c3.5,0,6.3,2.8,6.3,6.3S346.9,477.2,343.4,477.2"/>
</g>
</svg>
