<?xml version="1.0" encoding="utf-8"?>
<!-- Generator: Adobe Illustrator 27.0.0, SVG Export Plug-In . SVG Version: 6.00 Build 0)  -->
<svg version="1.1" id="Layer_1" xmlns="http://www.w3.org/2000/svg" xmlns:xlink="http://www.w3.org/1999/xlink" x="0px" y="0px"
	 viewBox="0 0 512 512" style="enable-background:new 0 0 512 512;" xml:space="preserve">
<style type="text/css">
	.st0{fill:#6A317F;}
	.st1{fill:#D31534;}
	.st2{clip-path:url(#SVGID_00000078760005393452032920000011162255043250741940_);}
	.st3{fill:#327846;}
</style>
<g>
	<defs>
		<rect id="SVGID_1_" x="-786.2" y="-113.2" width="1020.6" height="737.8"/>
	</defs>
	<clipPath id="SVGID_00000150818626207261510030000003825087405771436720_">
		<use xlink:href="#SVGID_1_"  style="overflow:visible;"/>
	</clipPath>
</g>
<g>
	<g>
		<polygon class="st3" points="463.9,236.6 463.9,72.6 201.2,72.4 201.2,351.4 241.9,345.2 241.9,112 428.4,112 428.4,199.7 
			260.4,224.9 260.4,264.6 		"/>
		<polygon class="st3" points="88.4,169.6 47.8,168.8 47.8,253.5 182.1,350.1 182.1,300.8 88.4,232 		"/>
	</g>
	<path class="st3" d="M463.9,53.8V14.2H47.8v136.8h133.7v-39.8h-93V53.8C88.5,53.8,460.8,53.8,463.9,53.8z"/>
</g>
<g>
	<path d="M192.4,406.7c0.7,0.2,1.3,0.7,1.8,1.4c0.5,0.7,0.9,1.6,1.2,2.8c0.3,1.2,0.4,2.7,0.4,4.6v18.2h13.1v-24c0-2.5-0.3-4.5-1-6.3
		c-0.6-1.7-1.5-3.1-2.6-4.2c-1.1-1.1-2.4-1.9-4-2.4c-1.5-0.5-3.2-0.8-4.9-0.8c-5.4,0-9.6,2.3-12.6,7c-2.9-4.6-7.1-6.9-12.5-6.9
		c-4.4,0-8.4,1.7-12,5.1v-4.5h-13.1v37h13.1v-18.2c0-2,0.2-3.6,0.5-4.8c0.3-1.2,0.7-2.2,1.3-2.9c0.6-0.7,1.2-1.2,1.9-1.4
		c0.7-0.2,1.5-0.4,2.3-0.4c1,0,1.8,0.1,2.5,0.4c0.7,0.3,1.3,0.8,1.8,1.5c0.5,0.7,0.8,1.7,1,2.9c0.2,1.2,0.4,2.8,0.4,4.7v18.2H184
		v-18.2c0-6.1,2.1-9.2,6.3-9.2C191,406.4,191.7,406.5,192.4,406.7z"/>
	<rect x="354.1" y="396.8" width="13.1" height="37"/>
	<path d="M355.4,387.8c0.7,0.7,1.5,1.2,2.3,1.6c0.9,0.4,1.8,0.6,2.8,0.6s2-0.2,2.8-0.6c0.9-0.4,1.7-0.9,2.3-1.6
		c0.7-0.7,1.2-1.5,1.6-2.3c0.4-0.9,0.6-1.8,0.6-2.8c0-1-0.2-2-0.6-2.8c-0.4-0.9-0.9-1.7-1.6-2.3c-0.7-0.7-1.5-1.2-2.3-1.6
		c-0.9-0.4-1.8-0.6-2.8-0.6s-2,0.2-2.8,0.6c-0.9,0.4-1.7,0.9-2.3,1.6c-0.7,0.7-1.2,1.5-1.6,2.3c-0.4,0.9-0.6,1.8-0.6,2.8
		c0,1,0.2,2,0.6,2.8C354.2,386.3,354.7,387.1,355.4,387.8z"/>
	<path d="M461.9,405c-0.4-1.5-1.1-2.9-2.2-4.2c-1.3-1.5-2.9-2.7-4.7-3.6c-1.9-0.8-4.1-1.3-6.7-1.3c-2.5,0-4.6,0.4-6.4,1.1
		c-1.8,0.7-3.6,2.2-5.4,4.4v-4.7h-13.1v37h13.1V414c0-2.5,0.6-4.3,1.8-5.7c1.2-1.3,2.9-2,5.1-2c0.8,0,1.6,0.1,2.3,0.4
		c0.7,0.2,1.4,0.7,1.9,1.2c0.7,0.7,1.1,1.6,1.4,2.7c0.3,1.1,0.4,2.6,0.4,4.4v18.7h13.1v-23.5C462.5,408.3,462.3,406.6,461.9,405z"/>
	<path d="M281.4,395.3c-10.9,0-19.8,8.9-19.8,19.8c0,10.9,8.9,19.8,19.8,19.8c10.9,0,19.8-8.9,19.8-19.8
		C301.2,404.1,292.3,395.3,281.4,395.3z M281.4,423.7c-4.8,0-8.7-3.9-8.7-8.7c0-4.8,3.9-8.7,8.7-8.7c4.8,0,8.7,3.9,8.7,8.7
		C290.1,419.8,286.2,423.7,281.4,423.7z"/>
	<path d="M238.2,395.3c-3.8,0-7.3,1.1-10.3,2.9v-24.2h-13.1v59.9h13.1V432c3,1.8,6.5,2.9,10.3,2.9c10.9,0,19.8-8.9,19.8-19.8
		C258,404.1,249.1,395.3,238.2,395.3z M238.2,423.7c-4.8,0-8.7-3.9-8.7-8.7c0-4.8,3.9-8.7,8.7-8.7c4.8,0,8.7,3.9,8.7,8.7
		C246.8,419.8,242.9,423.7,238.2,423.7z"/>
	<path d="M324.9,434.9c3.8,0,7.3-1.1,10.3-2.9v1.8h13.1v-59.9h-13.1v24.2c-3-1.8-6.5-2.9-10.3-2.9c-10.9,0-19.8,8.9-19.8,19.8
		C305.1,426,313.9,434.9,324.9,434.9z M324.9,406.4c4.8,0,8.7,3.9,8.7,8.7c0,4.8-3.9,8.7-8.7,8.7c-4.8,0-8.7-3.9-8.7-8.7
		C316.2,410.3,320.1,406.4,324.9,406.4z"/>
	<path d="M77,435.1c4.6,0,8.9-1.1,12.7-2.9V415c-2.7,4.1-7.4,6.7-12.7,6.7c-8.4,0-15.3-6.8-15.3-15.3s6.8-15.3,15.3-15.3
		c5.3,0,9.9,2.7,12.7,6.7v-17.2c-3.8-1.9-8.1-2.9-12.7-2.9c-15.9,0-28.7,12.9-28.7,28.7C48.3,422.3,61.2,435.1,77,435.1z"/>
	<path d="M114.4,434.9c4.8,0,9.3-1.7,12.7-4.6v3.6h13.1v-37h-13.1v3.1c-3.4-2.9-7.9-4.6-12.7-4.6c-10.9,0-19.8,8.9-19.8,19.8
		C94.6,426,103.4,434.9,114.4,434.9z M114.4,406.4c4.8,0,8.7,3.9,8.7,8.7c0,4.8-3.9,8.7-8.7,8.7c-4.8,0-8.7-3.9-8.7-8.7
		C105.7,410.3,109.6,406.4,114.4,406.4z"/>
	<path d="M391.8,434.9c4.8,0,9.3-1.7,12.7-4.6v3.6h13.1v-37h-13.1v3.1c-3.4-2.9-7.9-4.6-12.7-4.6c-10.9,0-19.8,8.9-19.8,19.8
		C372,426,380.9,434.9,391.8,434.9z M391.8,406.4c4.8,0,8.7,3.9,8.7,8.7c0,4.8-3.9,8.7-8.7,8.7s-8.7-3.9-8.7-8.7
		C383.1,410.3,387,406.4,391.8,406.4z"/>
</g>
<g>
	<polygon points="149.3,443.8 139.1,443.8 139.1,483 161.5,483 161.5,474.4 149.3,474.4 	"/>
	<path d="M188.5,459.3c-1.2-1.3-2.8-2.3-4.6-2.9c-1.8-0.7-3.8-1-6.1-1c-2.3,0-4.3,0.3-6.2,1c-1.8,0.7-3.4,1.6-4.6,2.9
		c-1.3,1.2-2.3,2.8-3,4.5c-0.7,1.8-1,3.8-1,6c0,2.1,0.4,4.1,1.1,5.8c0.7,1.7,1.8,3.2,3.1,4.5c1.3,1.2,2.9,2.2,4.8,2.9
		c1.9,0.7,3.9,1,6.2,1c7.3,0,11.9-3,13.8-9.1h-9.1c-1,1.7-2.6,2.5-4.6,2.5c-3.8,0-5.7-2-5.7-6.1h19.8v-1c0-2.3-0.3-4.4-1-6.3
		C190.7,462.2,189.7,460.6,188.5,459.3z M172.8,465.8c0.2-1.4,0.8-2.5,1.7-3.2c0.9-0.8,2.1-1.1,3.6-1.1c1.4,0,2.6,0.4,3.5,1.2
		c1,0.8,1.6,1.9,1.9,3.2H172.8z"/>
	<path d="M253.6,457.3c-2.2-1.3-4.7-2.1-7.5-2.1c-7.9,0-14.3,6.4-14.3,14.3c0,7.9,6.4,14.3,14.3,14.3c2.7,0,5.3-0.8,7.5-2.1v1
		c0,2-0.5,3.5-1.6,4.6c-1.1,1.1-2.6,1.7-4.5,1.7c-2.3,0-3.8-0.9-4.5-2.6h-10.6c0.3,1.5,0.8,2.8,1.7,4c0.8,1.2,1.9,2.3,3.2,3.2
		c1.3,0.9,2.8,1.6,4.5,2.2c1.7,0.5,3.6,0.8,5.7,0.8c1.8,0,3.5-0.2,5.1-0.6c1.6-0.4,3-1,4.2-1.7c1.2-0.7,2.3-1.6,3.2-2.6
		c0.9-1,1.5-2.1,1.9-3.2c0.3-0.9,0.6-1.9,0.7-3.1c0.2-1.2,0.3-2.5,0.3-4v-24.8h-9.4V457.3z M246.1,475.7c-3.4,0-6.2-2.8-6.2-6.2
		c0-3.4,2.8-6.2,6.2-6.2c3.4,0,6.2,2.8,6.2,6.2C252.4,472.9,249.6,475.7,246.1,475.7z"/>
	<path d="M286.6,471.4c0,3.3-1.6,4.9-4.8,4.9c-3.2,0-4.8-1.6-4.8-4.9v-15h-9.4v16.8c0,3.6,1.2,6.3,3.6,8.1c2.4,1.8,5.9,2.7,10.6,2.7
		c4.7,0,8.2-0.9,10.6-2.7c2.4-1.8,3.6-4.5,3.6-8.1v-16.8h-9.4V471.4z"/>
	<path d="M325,459.3c-1.2-1.3-2.8-2.3-4.6-2.9c-1.8-0.7-3.8-1-6.1-1c-2.3,0-4.3,0.3-6.2,1c-1.8,0.7-3.4,1.6-4.6,2.9
		c-1.3,1.2-2.3,2.8-3,4.5c-0.7,1.8-1,3.8-1,6c0,2.1,0.4,4.1,1.1,5.8c0.7,1.7,1.8,3.2,3.1,4.5c1.3,1.2,2.9,2.2,4.8,2.9
		c1.9,0.7,3.9,1,6.2,1c7.3,0,11.9-3,13.8-9.1h-9.1c-1,1.7-2.6,2.5-4.6,2.5c-3.8,0-5.7-2-5.7-6.1h19.8v-1c0-2.3-0.3-4.4-1-6.3
		C327.2,462.2,326.2,460.6,325,459.3z M309.3,465.8c0.2-1.4,0.8-2.5,1.7-3.2c0.9-0.8,2.1-1.1,3.6-1.1c1.4,0,2.6,0.4,3.5,1.2
		c1,0.8,1.6,1.9,1.9,3.2H309.3z"/>
	<path d="M219,458.5c-2.5-2.1-5.7-3.3-9.2-3.3c-7.9,0-14.3,6.4-14.3,14.3c0,7.9,6.4,14.3,14.3,14.3c3.5,0,6.7-1.3,9.2-3.3v2.6h9.5
		v-26.6H219V458.5z M209.8,475.7c-3.4,0-6.2-2.8-6.2-6.2c0-3.4,2.8-6.2,6.2-6.2s6.2,2.8,6.2,6.2
		C216.1,472.9,213.3,475.7,209.8,475.7z"/>
	<g>
		<path d="M373.6,482.7h-31.3l9.6-10c2.5-2.6,4.5-4.9,6-6.7c1.4-1.8,2.5-3.4,3.2-4.7c0.7-1.3,1.1-2.3,1.3-3.1c0.2-0.8,0.3-1.5,0.3-2
			c0-0.6-0.1-1.2-0.3-1.7c-0.2-0.5-0.5-1-0.8-1.5c-0.4-0.4-0.8-0.8-1.4-1c-0.5-0.3-1.2-0.4-1.9-0.4c-1.4,0-2.4,0.4-3.2,1.3
			c-0.8,0.9-1.2,2-1.2,3.3c0,0.4,0.1,0.9,0.2,1.6h-11c0-2.3,0.4-4.3,1.1-6.2c0.7-1.9,1.8-3.5,3.1-4.8c1.3-1.3,2.9-2.4,4.8-3.1
			c1.8-0.7,3.9-1.1,6-1.1c2.2,0,4.2,0.3,6,1c1.8,0.7,3.4,1.6,4.8,2.9c1.3,1.2,2.4,2.7,3.1,4.4c0.8,1.7,1.1,3.5,1.1,5.5
			c0,2.1-0.5,4.1-1.4,5.9c-0.9,1.8-2.4,3.6-4.4,5.5l-6.4,6h12.6V482.7z"/>
	</g>
</g>
</svg>
