<?xml version="1.0" encoding="utf-8"?>
<!-- Generator: Adobe Illustrator 27.0.0, SVG Export Plug-In . SVG Version: 6.00 Build 0)  -->
<svg version="1.1" id="Layer_1" xmlns="http://www.w3.org/2000/svg" xmlns:xlink="http://www.w3.org/1999/xlink" x="0px" y="0px"
	 viewBox="0 0 512 512" style="enable-background:new 0 0 512 512;" xml:space="preserve">
<style type="text/css">
	.st0{fill:#6A317F;}
	.st1{fill:#D31534;}
	.st2{clip-path:url(#SVGID_00000018209812014442729090000003239484350508763564_);}
	.st3{fill:#327846;}
</style>
<g>
	<g>
		<g>
			<polygon points="463.9,237.3 463.9,73.4 201.4,73.3 201.4,352 242.1,345.8 242.1,112.8 428.4,112.8 428.4,200.4 260.6,225.7 
				260.6,265.3 			"/>
			<polygon points="88.7,170.3 48.1,169.5 48.1,254.3 182.3,350.7 182.3,301.5 88.7,232.7 			"/>
		</g>
		<path d="M463.9,54.6V15H48.1v136.7h133.6V112h-93V54.6C88.7,54.6,460.8,54.6,463.9,54.6z"/>
	</g>
	<g>
		<path d="M193,407.4c0.7,0.2,1.3,0.7,1.8,1.4c0.5,0.7,0.9,1.6,1.2,2.8c0.3,1.2,0.4,2.7,0.4,4.6v18.2h13v-24c0-2.5-0.3-4.5-1-6.3
			c-0.6-1.7-1.5-3.1-2.6-4.2c-1.1-1.1-2.4-1.9-4-2.4c-1.5-0.5-3.2-0.8-4.9-0.8c-5.4,0-9.6,2.3-12.5,7c-2.9-4.6-7.1-6.9-12.5-6.9
			c-4.4,0-8.4,1.7-12,5.1v-4.5h-13v37h13v-18.2c0-2,0.2-3.6,0.5-4.8c0.3-1.2,0.7-2.2,1.3-2.9c0.6-0.7,1.2-1.2,1.9-1.4
			c0.7-0.2,1.5-0.4,2.3-0.4c1,0,1.8,0.1,2.5,0.4c0.7,0.3,1.3,0.8,1.8,1.5c0.5,0.7,0.8,1.7,1,2.9c0.2,1.2,0.4,2.8,0.4,4.7v18.2h13
			v-18.2c0-6.1,2.1-9.2,6.3-9.2C191.6,407,192.4,407.1,193,407.4z"/>
		<rect x="354.6" y="397.4" width="13" height="37"/>
		<path d="M355.9,388.4c0.7,0.7,1.5,1.2,2.3,1.6c0.9,0.4,1.8,0.6,2.8,0.6s2-0.2,2.8-0.6c0.9-0.4,1.7-0.9,2.3-1.6
			c0.7-0.7,1.2-1.5,1.6-2.3c0.4-0.9,0.6-1.8,0.6-2.8c0-1-0.2-2-0.6-2.8c-0.4-0.9-0.9-1.7-1.6-2.3c-0.7-0.7-1.5-1.2-2.3-1.6
			c-0.9-0.4-1.8-0.6-2.8-0.6s-2,0.2-2.8,0.6c-0.9,0.4-1.7,0.9-2.3,1.6c-0.7,0.7-1.2,1.5-1.6,2.3c-0.4,0.9-0.6,1.8-0.6,2.8
			c0,1,0.2,2,0.6,2.8C354.7,387,355.2,387.7,355.9,388.4z"/>
		<path d="M462.4,405.6c-0.4-1.5-1.1-2.9-2.2-4.2c-1.3-1.5-2.9-2.7-4.7-3.6c-1.8-0.8-4.1-1.3-6.7-1.3c-2.5,0-4.6,0.4-6.4,1.1
			c-1.8,0.7-3.6,2.2-5.4,4.4v-4.7h-13v37h13v-19.8c0-2.5,0.6-4.3,1.8-5.7c1.2-1.3,2.9-2,5.1-2c0.8,0,1.6,0.1,2.3,0.4
			c0.7,0.2,1.4,0.6,1.9,1.2c0.7,0.7,1.1,1.6,1.4,2.7c0.3,1.1,0.4,2.6,0.4,4.4v18.7h13v-23.5C463,408.9,462.8,407.2,462.4,405.6z"/>
		<path d="M67.9,444.4H51.7v39.1h10.2v-13h6c4.4,0,7.8-1.1,10.1-3.4c2.3-2.3,3.5-5.5,3.5-9.7s-1.2-7.4-3.5-9.7
			C75.7,445.6,72.3,444.4,67.9,444.4z M65.3,462.4h-3.4v-9.8h3.4c3.7,0,5.6,1.6,5.6,4.9C70.9,460.8,69,462.4,65.3,462.4z"/>
		<path d="M102.4,456.4c-1.9,0-3.6,0.4-5.1,1.3c-1.5,0.8-2.7,2.1-3.7,3.7V457h-9.4v26.6h9.4v-11.4c0-2.5,0.5-4.4,1.6-5.7
			c1.1-1.3,2.7-1.9,4.9-1.9c1.5,0,2.8,0.3,4,0.9v-9c-0.4-0.1-0.7-0.1-1-0.1C102.9,456.4,102.7,456.4,102.4,456.4z"/>
		<path d="M131,459.9c-1.2-1.3-2.8-2.3-4.6-2.9c-1.8-0.7-3.8-1-6.1-1c-2.3,0-4.3,0.3-6.1,1c-1.8,0.7-3.4,1.6-4.6,2.9
			c-1.3,1.2-2.3,2.8-3,4.5c-0.7,1.8-1,3.8-1,6c0,2.1,0.4,4.1,1.1,5.8c0.7,1.7,1.8,3.2,3.1,4.5c1.3,1.2,2.9,2.2,4.8,2.9
			c1.9,0.7,3.9,1,6.2,1c7.3,0,11.9-3,13.8-9.1h-9.1c-1,1.7-2.6,2.5-4.6,2.5c-3.8,0-5.7-2-5.7-6.1h19.8v-1c0-2.3-0.3-4.4-1-6.3
			C133.2,462.8,132.3,461.2,131,459.9z M115.4,466.4c0.2-1.4,0.8-2.5,1.7-3.2c0.9-0.8,2.1-1.1,3.6-1.1c1.4,0,2.6,0.4,3.5,1.2
			c1,0.8,1.6,1.9,1.9,3.2H115.4z"/>
		<path d="M180.9,458.7c-0.8-0.8-1.7-1.3-2.9-1.7c-1.1-0.4-2.3-0.5-3.5-0.5c-3.9,0-6.9,1.7-9,5c-2.1-3.3-5.1-5-9-5
			c-3.2,0-6.1,1.2-8.6,3.7V457h-9.4v26.6h9.4v-13.1c0-1.4,0.1-2.6,0.3-3.5c0.2-0.9,0.5-1.6,0.9-2.1c0.4-0.5,0.9-0.8,1.4-1
			c0.5-0.2,1.1-0.3,1.7-0.3c0.7,0,1.3,0.1,1.8,0.3c0.5,0.2,0.9,0.5,1.3,1.1c0.3,0.5,0.6,1.2,0.8,2.1c0.2,0.9,0.3,2,0.3,3.3v13.1h9.4
			v-13.1c0-4.4,1.5-6.6,4.5-6.6c0.6,0,1.1,0.1,1.6,0.3c0.5,0.2,0.9,0.5,1.3,1c0.4,0.5,0.6,1.2,0.8,2c0.2,0.9,0.3,2,0.3,3.3v13.1h9.4
			v-17.3c0-1.8-0.2-3.3-0.7-4.5C182.3,460.5,181.7,459.5,180.9,458.7z"/>
		<rect x="188.2" y="457" width="9.4" height="26.6"/>
		<path d="M196.6,443c-0.5-0.5-1-0.9-1.7-1.1c-0.6-0.3-1.3-0.4-2-0.4c-0.7,0-1.4,0.1-2.1,0.4c-0.6,0.3-1.2,0.7-1.7,1.1
			c-0.5,0.5-0.9,1-1.1,1.7c-0.3,0.6-0.4,1.3-0.4,2s0.1,1.4,0.4,2c0.3,0.6,0.7,1.2,1.1,1.7c0.5,0.5,1,0.9,1.7,1.1
			c0.6,0.3,1.3,0.4,2.1,0.4c0.7,0,1.4-0.1,2-0.4c0.6-0.3,1.2-0.7,1.7-1.1c0.5-0.5,0.9-1,1.1-1.7c0.3-0.6,0.4-1.3,0.4-2
			s-0.1-1.4-0.4-2C197.4,444,197.1,443.5,196.6,443z"/>
		<path d="M226.6,459.9c-1.2-1.3-2.8-2.3-4.6-2.9c-1.8-0.7-3.8-1-6.1-1c-2.3,0-4.3,0.3-6.1,1c-1.8,0.7-3.4,1.6-4.6,2.9
			s-2.3,2.8-3,4.5c-0.7,1.8-1,3.8-1,6c0,2.1,0.4,4.1,1.1,5.8c0.7,1.7,1.8,3.2,3.1,4.5c1.3,1.2,2.9,2.2,4.8,2.9c1.9,0.7,3.9,1,6.2,1
			c7.3,0,11.9-3,13.8-9.1H221c-1,1.7-2.6,2.5-4.6,2.5c-3.8,0-5.7-2-5.7-6.1h19.8v-1c0-2.3-0.3-4.4-1-6.3
			C228.8,462.8,227.9,461.2,226.6,459.9z M211,466.4c0.2-1.4,0.8-2.5,1.7-3.2c0.9-0.8,2.1-1.1,3.6-1.1c1.4,0,2.6,0.4,3.5,1.2
			c1,0.8,1.6,1.9,1.9,3.2H211z"/>
		<path d="M252.2,456.4c-1.9,0-3.6,0.4-5.1,1.3c-1.5,0.8-2.7,2.1-3.7,3.7V457H234v26.6h9.4v-11.4c0-2.5,0.5-4.4,1.6-5.7
			c1.1-1.3,2.7-1.9,4.9-1.9c1.5,0,2.8,0.3,4,0.9v-9c-0.4-0.1-0.7-0.1-1-0.1C252.7,456.4,252.4,456.4,252.2,456.4z"/>
		<polygon points="283.3,444.4 273.2,444.4 273.2,483.6 295.5,483.6 295.5,475 283.3,475 		"/>
		<path d="M322.5,459.9c-1.2-1.3-2.8-2.3-4.6-2.9c-1.8-0.7-3.8-1-6.1-1c-2.3,0-4.3,0.3-6.1,1c-1.8,0.7-3.4,1.6-4.6,2.9
			c-1.3,1.2-2.3,2.8-3,4.5c-0.7,1.8-1,3.8-1,6c0,2.1,0.4,4.1,1.1,5.8c0.7,1.7,1.8,3.2,3.1,4.5c1.3,1.2,2.9,2.2,4.8,2.9
			c1.9,0.7,3.9,1,6.2,1c7.3,0,11.9-3,13.8-9.1h-9.1c-1,1.7-2.6,2.5-4.6,2.5c-3.8,0-5.7-2-5.7-6.1h19.8v-1c0-2.3-0.3-4.4-1-6.3
			C324.7,462.8,323.8,461.2,322.5,459.9z M306.9,466.4c0.2-1.4,0.8-2.5,1.7-3.2c0.9-0.8,2.1-1.1,3.6-1.1c1.4,0,2.6,0.4,3.5,1.2
			c1,0.8,1.6,1.9,1.9,3.2H306.9z"/>
		<path d="M387.6,457.9c-2.2-1.3-4.7-2.1-7.5-2.1c-7.9,0-14.3,6.4-14.3,14.3s6.4,14.3,14.3,14.3c2.7,0,5.3-0.8,7.5-2.1v1
			c0,2-0.5,3.5-1.6,4.6c-1.1,1.1-2.6,1.7-4.5,1.7c-2.3,0-3.8-0.9-4.5-2.6h-10.6c0.3,1.5,0.8,2.8,1.7,4c0.8,1.2,1.9,2.3,3.2,3.2
			c1.3,0.9,2.8,1.6,4.5,2.2c1.7,0.5,3.6,0.8,5.7,0.8c1.8,0,3.5-0.2,5.1-0.6c1.6-0.4,3-1,4.2-1.7c1.2-0.7,2.3-1.6,3.2-2.6
			c0.9-1,1.5-2,1.9-3.2c0.3-0.9,0.6-1.9,0.7-3.1c0.2-1.2,0.3-2.5,0.3-4V457h-9.4V457.9z M380.1,476.3c-3.4,0-6.2-2.8-6.2-6.2
			s2.8-6.2,6.2-6.2s6.2,2.8,6.2,6.2S383.6,476.3,380.1,476.3z"/>
		<path d="M420.5,472c0,3.3-1.6,4.9-4.8,4.9c-3.2,0-4.8-1.6-4.8-4.9v-15h-9.4v16.8c0,3.6,1.2,6.3,3.6,8.1c2.4,1.8,5.9,2.7,10.6,2.7
			c4.7,0,8.2-0.9,10.6-2.7c2.4-1.8,3.6-4.5,3.6-8.1V457h-9.4V472z"/>
		<path d="M458.9,459.9c-1.2-1.3-2.8-2.3-4.6-2.9c-1.8-0.7-3.8-1-6.1-1c-2.3,0-4.3,0.3-6.1,1c-1.8,0.7-3.4,1.6-4.6,2.9
			c-1.3,1.2-2.3,2.8-3,4.5c-0.7,1.8-1,3.8-1,6c0,2.1,0.4,4.1,1.1,5.8c0.7,1.7,1.8,3.2,3.1,4.5c1.3,1.2,2.9,2.2,4.8,2.9
			c1.9,0.7,3.9,1,6.2,1c7.3,0,11.9-3,13.8-9.1h-9.1c-1,1.7-2.6,2.5-4.6,2.5c-3.8,0-5.7-2-5.7-6.1h19.8v-1c0-2.3-0.3-4.4-1-6.3
			C461.1,462.8,460.2,461.2,458.9,459.9z M443.3,466.4c0.2-1.4,0.8-2.5,1.7-3.2c0.9-0.8,2.1-1.1,3.6-1.1c1.4,0,2.6,0.4,3.5,1.2
			c1,0.8,1.6,1.9,1.9,3.2H443.3z"/>
		<path d="M282,395.9c-10.9,0-19.8,8.9-19.8,19.8c0,10.9,8.9,19.8,19.8,19.8c10.9,0,19.8-8.9,19.8-19.8
			C301.8,404.7,292.9,395.9,282,395.9z M282,424.3c-4.8,0-8.7-3.9-8.7-8.7c0-4.8,3.9-8.7,8.7-8.7c4.8,0,8.7,3.9,8.7,8.7
			C290.6,420.5,286.8,424.3,282,424.3z"/>
		<path d="M238.8,395.9c-3.8,0-7.3,1.1-10.3,2.9v-24.2h-13v59.8h13v-1.8c3,1.8,6.5,2.9,10.3,2.9c10.9,0,19.8-8.9,19.8-19.8
			C258.5,404.7,249.7,395.9,238.8,395.9z M238.8,424.3c-4.8,0-8.7-3.9-8.7-8.7c0-4.8,3.9-8.7,8.7-8.7c4.8,0,8.7,3.9,8.7,8.7
			C247.4,420.5,243.5,424.3,238.8,424.3z"/>
		<path d="M325.4,435.5c3.8,0,7.3-1.1,10.3-2.9v1.8h13v-59.8h-13v24.2c-3-1.8-6.5-2.9-10.3-2.9c-10.9,0-19.8,8.9-19.8,19.8
			C305.6,426.6,314.5,435.5,325.4,435.5z M325.4,407c4.8,0,8.7,3.9,8.7,8.7c0,4.8-3.9,8.7-8.7,8.7c-4.8,0-8.7-3.9-8.7-8.7
			C316.8,410.9,320.6,407,325.4,407z"/>
		<path d="M77.7,435.8c4.5,0,8.8-1.1,12.7-2.9v-17.2c-2.7,4.1-7.4,6.7-12.7,6.7c-8.4,0-15.3-6.8-15.3-15.3s6.8-15.3,15.3-15.3
			c5.3,0,9.9,2.7,12.7,6.7v-17.2c-3.8-1.9-8.1-2.9-12.7-2.9c-15.8,0-28.7,12.8-28.7,28.7C49,422.9,61.9,435.8,77.7,435.8z"/>
		<path d="M115,435.5c4.8,0,9.3-1.7,12.7-4.6v3.6h13.1v-37h-13.1v3.1c-3.4-2.9-7.9-4.6-12.7-4.6c-10.9,0-19.8,8.9-19.8,19.8
			C95.2,426.6,104.1,435.5,115,435.5z M115,407c4.8,0,8.7,3.9,8.7,8.7c0,4.8-3.9,8.7-8.7,8.7c-4.8,0-8.7-3.9-8.7-8.7
			C106.4,410.9,110.2,407,115,407z"/>
		<path d="M392.3,435.5c4.8,0,9.3-1.7,12.7-4.6v3.6h13.1v-37H405v3.1c-3.4-2.9-7.9-4.6-12.7-4.6c-10.9,0-19.8,8.9-19.8,19.8
			C372.5,426.6,381.4,435.5,392.3,435.5z M392.3,407c4.8,0,8.7,3.9,8.7,8.7c0,4.8-3.9,8.7-8.7,8.7c-4.8,0-8.7-3.9-8.7-8.7
			C383.7,410.9,387.5,407,392.3,407z"/>
		<path d="M353,459.1c-2.5-2.1-5.7-3.3-9.2-3.3c-7.9,0-14.3,6.4-14.3,14.3s6.4,14.3,14.3,14.3c3.5,0,6.7-1.3,9.2-3.3v2.6h9.4v-26.6
			H353V459.1z M343.9,476.3c-3.4,0-6.2-2.8-6.2-6.2s2.8-6.2,6.2-6.2s6.2,2.8,6.2,6.2S347.3,476.3,343.9,476.3z"/>
	</g>
</g>
</svg>
